<svg xmlns="http://www.w3.org/2000/svg" xmlns:xlink="http://www.w3.org/1999/xlink" viewBox="0 0 800 800"><defs><style>.cls-1,.cls-10,.cls-15,.cls-16,.cls-17,.cls-18,.cls-19,.cls-2,.cls-3,.cls-4,.cls-5,.cls-6,.cls-7,.cls-8,.cls-9{fill-rule:evenodd;}.cls-1{fill:url(#linear-gradient);}.cls-2{fill:url(#linear-gradient-2);}.cls-3{fill:url(#linear-gradient-3);}.cls-4{fill:url(#linear-gradient-4);}.cls-5{fill:url(#linear-gradient-5);}.cls-6{fill:url(#linear-gradient-6);}.cls-7{fill:url(#linear-gradient-7);}.cls-8{fill:url(#linear-gradient-8);}.cls-9{fill:url(#linear-gradient-9);}.cls-10{fill:url(#linear-gradient-10);}.cls-11{fill:url(#linear-gradient-11);}.cls-12{fill:url(#linear-gradient-12);}.cls-13{fill:url(#linear-gradient-13);}.cls-14{fill:url(#linear-gradient-14);}.cls-15{fill:#6d6e70;}.cls-16{fill:url(#linear-gradient-15);}.cls-17{fill:url(#linear-gradient-16);}.cls-18{fill:url(#linear-gradient-17);}.cls-19{fill:url(#linear-gradient-18);}.cls-20{fill:url(#linear-gradient-19);}.cls-21{fill:url(#linear-gradient-20);}.cls-22{fill:url(#linear-gradient-21);}.cls-23{fill:url(#linear-gradient-22);}.cls-24{fill:url(#linear-gradient-23);}.cls-25{font-size:81.34px;fill:#4f4f4f;font-family:MyriadPro-Regular, Myriad Pro;letter-spacing:-0.03em;}.cls-26{letter-spacing:-0.01em;}.cls-27{letter-spacing:0em;}</style><linearGradient id="linear-gradient" x1="310.01" y1="355.19" x2="310.01" y2="321.95" gradientUnits="userSpaceOnUse"><stop offset="0" stop-color="#fff" stop-opacity="0"/><stop offset="0.14" stop-color="#fbfbfb" stop-opacity="0.04"/><stop offset="0.31" stop-color="#f0f0f1" stop-opacity="0.14"/><stop offset="0.49" stop-color="#dededf" stop-opacity="0.3"/><stop offset="0.69" stop-color="#c4c5c7" stop-opacity="0.54"/><stop offset="0.9" stop-color="#a4a6a8" stop-opacity="0.84"/><stop offset="1" stop-color="#929497"/></linearGradient><linearGradient id="linear-gradient-2" x1="481.4" y1="316.97" x2="481.4" y2="277.69" xlink:href="#linear-gradient"/><linearGradient id="linear-gradient-3" x1="494.34" y1="357.5" x2="494.34" y2="324.91" xlink:href="#linear-gradient"/><linearGradient id="linear-gradient-4" x1="370" y1="314.5" x2="488.67" y2="314.5" gradientUnits="userSpaceOnUse"><stop offset="0" stop-color="#26a9e0"/><stop offset="1" stop-color="#2b388f"/></linearGradient><linearGradient id="linear-gradient-5" x1="506.45" y1="309.26" x2="534.28" y2="307.04" gradientUnits="userSpaceOnUse"><stop offset="0" stop-color="#bbbdbf"/><stop offset="1" stop-color="#404041"/></linearGradient><linearGradient id="linear-gradient-6" x1="553.15" y1="303.55" x2="476.5" y2="356.45" xlink:href="#linear-gradient-5"/><linearGradient id="linear-gradient-7" x1="526.06" y1="273.44" x2="527.02" y2="371.48" xlink:href="#linear-gradient-5"/><linearGradient id="linear-gradient-8" x1="283.87" y1="334.85" x2="269.62" y2="348.42" xlink:href="#linear-gradient-5"/><linearGradient id="linear-gradient-9" x1="271.98" y1="337.55" x2="257.53" y2="367.76" xlink:href="#linear-gradient-5"/><linearGradient id="linear-gradient-10" x1="259.26" y1="312.13" x2="255.42" y2="393.83" gradientUnits="userSpaceOnUse"><stop offset="0" stop-color="#bbbdbf"/><stop offset="0.19" stop-color="#a8aaac"/><stop offset="0.59" stop-color="#78797a"/><stop offset="1" stop-color="#404041"/></linearGradient><linearGradient id="linear-gradient-11" x1="305.28" y1="350.89" x2="305.28" y2="401.28" xlink:href="#linear-gradient-4"/><linearGradient id="linear-gradient-12" x1="315.57" y1="350.89" x2="315.57" y2="401.28" xlink:href="#linear-gradient-4"/><linearGradient id="linear-gradient-13" x1="305.28" y1="351.9" x2="305.28" y2="402.28" xlink:href="#linear-gradient-4"/><linearGradient id="linear-gradient-14" x1="315.57" y1="351.9" x2="315.57" y2="402.28" xlink:href="#linear-gradient-4"/><linearGradient id="linear-gradient-15" x1="533.1" y1="302.74" x2="552.32" y2="399.82" xlink:href="#linear-gradient-5"/><linearGradient id="linear-gradient-16" x1="403.35" y1="385.75" x2="403.35" y2="340.92" xlink:href="#linear-gradient-4"/><linearGradient id="linear-gradient-17" x1="448.58" y1="275.86" x2="391.88" y2="359.31" xlink:href="#linear-gradient-4"/><linearGradient id="linear-gradient-18" x1="403.26" y1="325.22" x2="403.26" y2="387.42" xlink:href="#linear-gradient-4"/><linearGradient id="linear-gradient-19" x1="500.44" y1="357.31" x2="500.44" y2="390.53" xlink:href="#linear-gradient-4"/><linearGradient id="linear-gradient-20" x1="490.6" y1="357.31" x2="490.6" y2="390.53" xlink:href="#linear-gradient-4"/><linearGradient id="linear-gradient-21" x1="500.44" y1="358.32" x2="500.44" y2="391.53" xlink:href="#linear-gradient-4"/><linearGradient id="linear-gradient-22" x1="490.6" y1="358.32" x2="490.6" y2="391.53" xlink:href="#linear-gradient-4"/><linearGradient id="linear-gradient-23" x1="400" y1="339.62" x2="400" y2="414.14" xlink:href="#linear-gradient-5"/></defs><title>logo1</title><g id="Layer_4" data-name="Layer 4"><polygon class="cls-1" points="311.28 330.26 272.35 369.19 347.66 366.9 311.28 330.26"/><polygon class="cls-2" points="481.57 287.52 437.98 333.51 524.82 330.8 481.57 287.52"/><polygon class="cls-3" points="495.48 333.06 457.06 371.22 531.61 369.19 495.48 333.06"/><polygon class="cls-4" points="488.68 272.41 409.83 296.63 370 337.88 370.09 337.91 388.14 356.59 409.21 356.36 488.68 272.41"/><polygon class="cls-5" points="532.21 298.35 531.03 298.81 522.95 301.97 522.95 306.36 531.71 315.54 532.21 316.06 532.21 298.35"/><polygon class="cls-6" points="544.64 301.97 532.21 298.35 532.21 316.06 544.64 329.08 544.64 301.97"/><polygon class="cls-7" points="490.61 276.43 484.26 283.19 543.82 345.2 543.82 358.29 568.8 358.29 490.61 276.43"/><polygon class="cls-8" points="272.04 339.23 272.96 339.6 279.24 342.05 279.24 345.46 272.43 352.6 272.04 353 272.04 339.23"/><polygon class="cls-9" points="262.38 342.05 272.04 339.24 272.04 353 262.38 363.12 262.38 342.05"/><polygon class="cls-10" points="304.17 322.54 309.13 327.75 263.01 375.65 265.05 402.35 203.92 412.74 261.93 398.95 257.44 383.69 245.5 383.69 304.17 322.54"/><rect class="cls-11" x="301.45" y="361.46" width="7.67" height="7.67"/><rect class="cls-12" x="311.74" y="361.46" width="7.67" height="7.67"/><rect class="cls-13" x="301.45" y="371.67" width="7.67" height="7.66"/><rect class="cls-14" x="311.74" y="371.67" width="7.67" height="7.66"/><polygon class="cls-15" points="526.17 350.3 526.17 354.02 542.21 370.06 542.21 367.1 526.17 350.3"/><polygon class="cls-16" points="502.57 325.55 497.73 330.54 541.61 376.12 539.57 402.35 596.08 414.35 542.48 399.29 546.55 385.8 560.08 385.8 502.57 325.55"/><polygon class="cls-17" points="305.88 319.08 367.16 337.91 405.95 378.08 442.52 340.2 500.83 322.29 445.77 379.2 445.77 384.37 362.93 384.37 362.93 379.2 305.88 319.08"/><polygon class="cls-18" points="373.43 337.85 411.15 298.78 480.52 277.47 408.15 353.93 389.16 354.14 373.43 337.85"/><polygon class="cls-19" points="365.38 381.93 365.38 378.22 314.06 324.15 365.84 340.06 405.95 381.59 443.84 342.36 492.47 327.41 443.33 378.21 443.33 381.93 365.38 381.93"/><rect class="cls-20" x="496.8" y="362.62" width="7.29" height="7.29"/><rect class="cls-21" x="486.95" y="362.62" width="7.29" height="7.29"/><rect class="cls-22" x="496.8" y="372.37" width="7.29" height="7.29"/><rect class="cls-23" x="486.95" y="372.37" width="7.29" height="7.29"/><path class="cls-24" d="M204,420h0c35.39-6.71,71-11.9,106.87-15.17,29.78-2.72,59.62-3.58,89.5-4.28,51.29-1.21,103.28,2,153.72,11.59,14.14,2.69,28.17,5.91,42.11,9.5-43.93-10.16-88.2-13.46-133.24-15.37-20.85-.88-41.7-.95-62.57-1-29.81.54-59.57,1.62-89.32,3.66C275.08,411.61,239.47,414.19,204,420Z"/><text class="cls-25" transform="translate(262.38 480.16)">P<tspan class="cls-26" x="41.16" y="0">a</tspan><tspan class="cls-27" x="79.71" y="0">yBlock</tspan></text></g></svg>