<?xml version="1.0" encoding="utf-8"?>
<!-- Generator: Adobe Illustrator 23.0.0, SVG Export Plug-In . SVG Version: 6.00 Build 0)  -->
<svg version="1.1" xmlns="http://www.w3.org/2000/svg" xmlns:xlink="http://www.w3.org/1999/xlink" x="0px" y="0px"
	 viewBox="0 0 800 800" style="enable-background:new 0 0 800 800;" xml:space="preserve">
<style type="text/css">
	.st0{fill-rule:evenodd;clip-rule:evenodd;fill:url(#SVGID_1_);}
	.st1{fill-rule:evenodd;clip-rule:evenodd;fill:url(#SVGID_2_);}
	.st2{fill-rule:evenodd;clip-rule:evenodd;fill:url(#SVGID_3_);}
	.st3{fill-rule:evenodd;clip-rule:evenodd;fill:url(#SVGID_4_);}
	.st4{fill-rule:evenodd;clip-rule:evenodd;fill:url(#SVGID_5_);}
	.st5{fill-rule:evenodd;clip-rule:evenodd;fill:url(#SVGID_6_);}
	.st6{fill-rule:evenodd;clip-rule:evenodd;fill:url(#SVGID_7_);}
	.st7{fill-rule:evenodd;clip-rule:evenodd;fill:url(#SVGID_8_);}
	.st8{fill-rule:evenodd;clip-rule:evenodd;fill:url(#SVGID_9_);}
	.st9{fill-rule:evenodd;clip-rule:evenodd;fill:url(#SVGID_10_);}
	.st10{fill-rule:evenodd;clip-rule:evenodd;fill:url(#SVGID_11_);}
	.st11{fill-rule:evenodd;clip-rule:evenodd;fill:url(#SVGID_12_);}
	.st12{fill-rule:evenodd;clip-rule:evenodd;fill:url(#SVGID_13_);}
	.st13{fill-rule:evenodd;clip-rule:evenodd;fill:url(#SVGID_14_);}
	.st14{fill-rule:evenodd;clip-rule:evenodd;fill:#6D6E70;}
	.st15{fill-rule:evenodd;clip-rule:evenodd;fill:url(#SVGID_15_);}
	.st16{fill-rule:evenodd;clip-rule:evenodd;fill:url(#SVGID_16_);}
	.st17{fill-rule:evenodd;clip-rule:evenodd;fill:url(#SVGID_17_);}
	.st18{fill-rule:evenodd;clip-rule:evenodd;fill:url(#SVGID_18_);}
	.st19{fill-rule:evenodd;clip-rule:evenodd;fill:url(#SVGID_19_);}
	.st20{fill-rule:evenodd;clip-rule:evenodd;fill:url(#SVGID_20_);}
	.st21{fill-rule:evenodd;clip-rule:evenodd;fill:url(#SVGID_21_);}
	.st22{fill-rule:evenodd;clip-rule:evenodd;fill:url(#SVGID_22_);}
	.st23{fill:url(#SVGID_23_);}
	.st24{fill:#4F4F4F;}
	.st25{font-family:'MyriadPro-Regular';}
	.st26{font-size:81.338px;}
</style>
<g id="Layer_1">
</g>
<g id="Layer_4">
	<g>
		<linearGradient id="SVGID_1_" gradientUnits="userSpaceOnUse" x1="310.0074" y1="355.1947" x2="310.0074" y2="321.9479">
			<stop  offset="0" style="stop-color:#FFFFFF;stop-opacity:0"/>
			<stop  offset="0.1651" style="stop-color:#FAFAFA;stop-opacity:0.1651"/>
			<stop  offset="0.3705" style="stop-color:#EAEBEB;stop-opacity:0.3705"/>
			<stop  offset="0.5971" style="stop-color:#D1D2D3;stop-opacity:0.5971"/>
			<stop  offset="0.8373" style="stop-color:#AEB0B2;stop-opacity:0.8373"/>
			<stop  offset="1" style="stop-color:#929497"/>
		</linearGradient>
		<polygon class="st0" points="311.28,330.26 272.35,369.19 347.66,366.9 		"/>
		<linearGradient id="SVGID_2_" gradientUnits="userSpaceOnUse" x1="481.4035" y1="316.9743" x2="481.4035" y2="277.6942">
			<stop  offset="0" style="stop-color:#FFFFFF;stop-opacity:0"/>
			<stop  offset="0.1651" style="stop-color:#FAFAFA;stop-opacity:0.1651"/>
			<stop  offset="0.3705" style="stop-color:#EAEBEB;stop-opacity:0.3705"/>
			<stop  offset="0.5971" style="stop-color:#D1D2D3;stop-opacity:0.5971"/>
			<stop  offset="0.8373" style="stop-color:#AEB0B2;stop-opacity:0.8373"/>
			<stop  offset="1" style="stop-color:#929497"/>
		</linearGradient>
		<polygon class="st1" points="481.57,287.52 437.98,333.51 524.82,330.8 		"/>
		<linearGradient id="SVGID_3_" gradientUnits="userSpaceOnUse" x1="494.3388" y1="357.5037" x2="494.3388" y2="324.9095">
			<stop  offset="0" style="stop-color:#FFFFFF;stop-opacity:0"/>
			<stop  offset="0.1651" style="stop-color:#FAFAFA;stop-opacity:0.1651"/>
			<stop  offset="0.3705" style="stop-color:#EAEBEB;stop-opacity:0.3705"/>
			<stop  offset="0.5971" style="stop-color:#D1D2D3;stop-opacity:0.5971"/>
			<stop  offset="0.8373" style="stop-color:#AEB0B2;stop-opacity:0.8373"/>
			<stop  offset="1" style="stop-color:#929497"/>
		</linearGradient>
		<polygon class="st2" points="495.48,333.06 457.06,371.22 531.61,369.19 		"/>
		<linearGradient id="SVGID_4_" gradientUnits="userSpaceOnUse" x1="370.0029" y1="314.5019" x2="488.6748" y2="314.5019">
			<stop  offset="0" style="stop-color:#26A9E0"/>
			<stop  offset="1" style="stop-color:#2B388F"/>
		</linearGradient>
		<polygon class="st3" points="488.67,272.41 409.83,296.63 370,337.88 370.09,337.91 388.14,356.59 409.21,356.36 		"/>
		<linearGradient id="SVGID_5_" gradientUnits="userSpaceOnUse" x1="506.447" y1="309.2628" x2="534.2755" y2="307.0354">
			<stop  offset="0" style="stop-color:#BBBDBF"/>
			<stop  offset="1" style="stop-color:#404041"/>
		</linearGradient>
		<polygon class="st4" points="532.21,298.35 531.03,298.81 522.95,301.97 522.95,306.36 531.71,315.54 532.21,316.06 		"/>
		<linearGradient id="SVGID_6_" gradientUnits="userSpaceOnUse" x1="553.1519" y1="303.5458" x2="476.503" y2="356.4536">
			<stop  offset="0" style="stop-color:#BBBDBF"/>
			<stop  offset="1" style="stop-color:#404041"/>
		</linearGradient>
		<polygon class="st5" points="544.64,301.97 532.21,298.35 532.21,316.06 544.64,329.08 		"/>
		<linearGradient id="SVGID_7_" gradientUnits="userSpaceOnUse" x1="526.0631" y1="273.4371" x2="527.0248" y2="371.4812">
			<stop  offset="0" style="stop-color:#BBBDBF"/>
			<stop  offset="1" style="stop-color:#404041"/>
		</linearGradient>
		<polygon class="st6" points="490.61,276.43 484.26,283.19 543.82,345.2 543.82,358.29 568.8,358.29 		"/>
		<linearGradient id="SVGID_8_" gradientUnits="userSpaceOnUse" x1="283.871" y1="334.851" x2="269.621" y2="348.4212">
			<stop  offset="0" style="stop-color:#BBBDBF"/>
			<stop  offset="1" style="stop-color:#404041"/>
		</linearGradient>
		<polygon class="st7" points="272.04,339.23 272.96,339.6 279.24,342.05 279.24,345.46 272.43,352.6 272.04,353 		"/>
		<linearGradient id="SVGID_9_" gradientUnits="userSpaceOnUse" x1="271.9821" y1="337.5471" x2="257.5336" y2="367.7583">
			<stop  offset="0" style="stop-color:#BBBDBF"/>
			<stop  offset="1" style="stop-color:#404041"/>
		</linearGradient>
		<polygon class="st8" points="262.38,342.05 272.04,339.24 272.04,353 262.38,363.12 		"/>
		<linearGradient id="SVGID_10_" gradientUnits="userSpaceOnUse" x1="259.2619" y1="312.1316" x2="255.4174" y2="393.8336">
			<stop  offset="0" style="stop-color:#BBBDBF"/>
			<stop  offset="0.1949" style="stop-color:#A8AAAC"/>
			<stop  offset="0.5905" style="stop-color:#78797A"/>
			<stop  offset="1" style="stop-color:#404041"/>
		</linearGradient>
		<polygon class="st9" points="304.17,322.54 309.13,327.75 263.01,375.65 265.05,402.35 203.92,412.74 261.93,398.96 
			257.44,383.69 245.5,383.69 		"/>
		<g>
			<linearGradient id="SVGID_11_" gradientUnits="userSpaceOnUse" x1="305.2823" y1="350.8946" x2="305.2823" y2="401.2842">
				<stop  offset="0" style="stop-color:#26A9E0"/>
				<stop  offset="1" style="stop-color:#2B388F"/>
			</linearGradient>
			<rect x="301.45" y="361.46" class="st10" width="7.67" height="7.67"/>
			<linearGradient id="SVGID_12_" gradientUnits="userSpaceOnUse" x1="315.5723" y1="350.8946" x2="315.5723" y2="401.2842">
				<stop  offset="0" style="stop-color:#26A9E0"/>
				<stop  offset="1" style="stop-color:#2B388F"/>
			</linearGradient>
			<rect x="311.74" y="361.46" class="st11" width="7.67" height="7.67"/>
			<linearGradient id="SVGID_13_" gradientUnits="userSpaceOnUse" x1="305.2823" y1="351.8984" x2="305.2823" y2="402.2789">
				<stop  offset="0" style="stop-color:#26A9E0"/>
				<stop  offset="1" style="stop-color:#2B388F"/>
			</linearGradient>
			<rect x="301.45" y="371.67" class="st12" width="7.67" height="7.66"/>
			<linearGradient id="SVGID_14_" gradientUnits="userSpaceOnUse" x1="315.5723" y1="351.8984" x2="315.5723" y2="402.2789">
				<stop  offset="0" style="stop-color:#26A9E0"/>
				<stop  offset="1" style="stop-color:#2B388F"/>
			</linearGradient>
			<rect x="311.74" y="371.67" class="st13" width="7.67" height="7.66"/>
		</g>
		<polygon class="st14" points="526.17,350.3 526.17,354.02 542.21,370.06 542.21,367.1 		"/>
		<linearGradient id="SVGID_15_" gradientUnits="userSpaceOnUse" x1="533.0994" y1="302.7364" x2="552.3232" y2="399.8185">
			<stop  offset="0" style="stop-color:#BBBDBF"/>
			<stop  offset="1" style="stop-color:#404041"/>
		</linearGradient>
		<polygon class="st15" points="502.57,325.55 497.73,330.54 541.6,376.12 539.57,402.35 596.08,414.35 542.48,399.29 546.55,385.8 
			560.08,385.8 		"/>
		<linearGradient id="SVGID_16_" gradientUnits="userSpaceOnUse" x1="403.3535" y1="385.7455" x2="403.3535" y2="340.9195">
			<stop  offset="0" style="stop-color:#26A9E0"/>
			<stop  offset="1" style="stop-color:#2B388F"/>
		</linearGradient>
		<polygon class="st16" points="305.88,319.08 367.16,337.91 405.95,378.08 442.52,340.2 500.83,322.29 445.77,379.2 445.77,384.37 
			362.93,384.37 362.93,379.2 		"/>
		<linearGradient id="SVGID_17_" gradientUnits="userSpaceOnUse" x1="448.5785" y1="275.8648" x2="391.8792" y2="359.3088">
			<stop  offset="0" style="stop-color:#26A9E0"/>
			<stop  offset="1" style="stop-color:#2B388F"/>
		</linearGradient>
		<polygon class="st17" points="373.43,337.85 411.15,298.78 480.52,277.47 408.15,353.93 389.16,354.14 		"/>
		<linearGradient id="SVGID_18_" gradientUnits="userSpaceOnUse" x1="403.2633" y1="325.2246" x2="403.2633" y2="387.4188">
			<stop  offset="0" style="stop-color:#26A9E0"/>
			<stop  offset="1" style="stop-color:#2B388F"/>
		</linearGradient>
		<polygon class="st18" points="365.38,381.93 365.38,378.22 314.06,324.15 365.84,340.06 405.95,381.59 443.84,342.36 
			492.47,327.41 443.33,378.21 443.33,381.93 		"/>
		<g>
			<linearGradient id="SVGID_19_" gradientUnits="userSpaceOnUse" x1="500.4396" y1="357.3145" x2="500.4396" y2="390.5304">
				<stop  offset="0" style="stop-color:#26A9E0"/>
				<stop  offset="1" style="stop-color:#2B388F"/>
			</linearGradient>
			<rect x="496.8" y="362.62" class="st19" width="7.29" height="7.29"/>
			<linearGradient id="SVGID_20_" gradientUnits="userSpaceOnUse" x1="490.6004" y1="357.3145" x2="490.6004" y2="390.5304">
				<stop  offset="0" style="stop-color:#26A9E0"/>
				<stop  offset="1" style="stop-color:#2B388F"/>
			</linearGradient>
			<rect x="486.95" y="362.62" class="st20" width="7.29" height="7.29"/>
			<linearGradient id="SVGID_21_" gradientUnits="userSpaceOnUse" x1="500.4396" y1="358.3155" x2="500.4396" y2="391.5313">
				<stop  offset="0" style="stop-color:#26A9E0"/>
				<stop  offset="1" style="stop-color:#2B388F"/>
			</linearGradient>
			<rect x="496.8" y="372.37" class="st21" width="7.29" height="7.29"/>
			<linearGradient id="SVGID_22_" gradientUnits="userSpaceOnUse" x1="490.6004" y1="358.3155" x2="490.6004" y2="391.5313">
				<stop  offset="0" style="stop-color:#26A9E0"/>
				<stop  offset="1" style="stop-color:#2B388F"/>
			</linearGradient>
			<rect x="486.95" y="372.37" class="st22" width="7.29" height="7.29"/>
		</g>
		<linearGradient id="SVGID_23_" gradientUnits="userSpaceOnUse" x1="400" y1="339.6184" x2="400" y2="414.1353">
			<stop  offset="0" style="stop-color:#BBBDBF"/>
			<stop  offset="1" style="stop-color:#404041"/>
		</linearGradient>
		<path class="st23" d="M203.95,419.97c-0.01,0-0.03,0-0.05,0.01c35.39-6.72,70.99-11.9,106.87-15.17
			c29.78-2.72,59.62-3.58,89.5-4.28c51.29-1.21,103.28,2,153.72,11.59c14.14,2.69,28.18,5.91,42.11,9.5
			c-43.93-10.16-88.21-13.46-133.24-15.37c-20.86-0.88-41.7-0.95-62.57-0.96c-29.81,0.53-59.58,1.62-89.33,3.66
			C275.08,411.61,239.47,414.19,203.95,419.97z"/>
	</g>
	<text transform="matrix(1 0 0 1 262.3779 480.1634)" class="st24 st25 st26">PayBlock</text>
</g>
</svg>
