<svg id="Layer_1" data-name="Layer 1" xmlns="http://www.w3.org/2000/svg" xmlns:xlink="http://www.w3.org/1999/xlink" viewBox="0 0 800 800"><defs><style>.cls-1,.cls-10,.cls-15,.cls-16,.cls-17,.cls-18,.cls-19,.cls-2,.cls-3,.cls-4,.cls-5,.cls-6,.cls-7,.cls-8,.cls-9{fill-rule:evenodd;}.cls-1{fill:url(#linear-gradient);}.cls-2{fill:url(#linear-gradient-2);}.cls-3{fill:url(#linear-gradient-3);}.cls-4{fill:url(#linear-gradient-4);}.cls-5{fill:url(#linear-gradient-5);}.cls-6{fill:url(#linear-gradient-6);}.cls-7{fill:url(#linear-gradient-7);}.cls-8{fill:url(#linear-gradient-8);}.cls-9{fill:url(#linear-gradient-9);}.cls-10{fill:url(#linear-gradient-10);}.cls-11{fill:url(#linear-gradient-11);}.cls-12{fill:url(#linear-gradient-12);}.cls-13{fill:url(#linear-gradient-13);}.cls-14{fill:url(#linear-gradient-14);}.cls-15{fill:#6d6e70;}.cls-16{fill:url(#linear-gradient-15);}.cls-17{fill:url(#linear-gradient-16);}.cls-18{fill:url(#linear-gradient-17);}.cls-19{fill:url(#linear-gradient-18);}.cls-20{fill:url(#linear-gradient-19);}.cls-21{fill:url(#linear-gradient-20);}.cls-22{fill:url(#linear-gradient-21);}.cls-23{fill:url(#linear-gradient-22);}.cls-24{fill:url(#linear-gradient-23);}.cls-25{font-size:123.02px;fill:#4f4f4f;font-family:MyriadPro-Regular, Myriad Pro;}.cls-26{letter-spacing:-0.03em;}.cls-27{letter-spacing:-0.01em;}</style><linearGradient id="linear-gradient" x1="263.89" y1="319.58" x2="263.89" y2="269.29" gradientUnits="userSpaceOnUse"><stop offset="0" stop-color="#fff" stop-opacity="0"/><stop offset="0.14" stop-color="#fbfbfb" stop-opacity="0.04"/><stop offset="0.31" stop-color="#f0f0f1" stop-opacity="0.14"/><stop offset="0.49" stop-color="#dededf" stop-opacity="0.3"/><stop offset="0.69" stop-color="#c4c5c7" stop-opacity="0.54"/><stop offset="0.9" stop-color="#a4a6a8" stop-opacity="0.84"/><stop offset="1" stop-color="#929497"/></linearGradient><linearGradient id="linear-gradient-2" x1="523.12" y1="261.77" x2="523.12" y2="202.36" xlink:href="#linear-gradient"/><linearGradient id="linear-gradient-3" x1="542.69" y1="323.07" x2="542.69" y2="273.77" xlink:href="#linear-gradient"/><linearGradient id="linear-gradient-4" x1="354.63" y1="258.03" x2="534.12" y2="258.03" gradientUnits="userSpaceOnUse"><stop offset="0" stop-color="#26a9e0"/><stop offset="1" stop-color="#2b388f"/></linearGradient><linearGradient id="linear-gradient-5" x1="561" y1="250.11" x2="603.09" y2="246.74" gradientUnits="userSpaceOnUse"><stop offset="0" stop-color="#bbbdbf"/><stop offset="1" stop-color="#404041"/></linearGradient><linearGradient id="linear-gradient-6" x1="631.64" y1="241.46" x2="515.71" y2="321.48" xlink:href="#linear-gradient-5"/><linearGradient id="linear-gradient-7" x1="590.67" y1="195.92" x2="592.13" y2="344.21" xlink:href="#linear-gradient-5"/><linearGradient id="linear-gradient-8" x1="224.35" y1="288.81" x2="202.8" y2="309.34" xlink:href="#linear-gradient-5"/><linearGradient id="linear-gradient-9" x1="206.37" y1="292.89" x2="184.52" y2="338.58" xlink:href="#linear-gradient-5"/><linearGradient id="linear-gradient-10" x1="187.13" y1="254.45" x2="181.32" y2="378.02" gradientUnits="userSpaceOnUse"><stop offset="0" stop-color="#bbbdbf"/><stop offset="0.19" stop-color="#a8aaac"/><stop offset="0.59" stop-color="#78797a"/><stop offset="1" stop-color="#404041"/></linearGradient><linearGradient id="linear-gradient-11" x1="256.74" y1="313.08" x2="256.74" y2="389.29" xlink:href="#linear-gradient-4"/><linearGradient id="linear-gradient-12" x1="272.3" y1="313.08" x2="272.3" y2="389.29" xlink:href="#linear-gradient-4"/><linearGradient id="linear-gradient-13" x1="256.74" y1="314.6" x2="256.74" y2="390.8" xlink:href="#linear-gradient-4"/><linearGradient id="linear-gradient-14" x1="272.3" y1="314.6" x2="272.3" y2="390.8" xlink:href="#linear-gradient-4"/><linearGradient id="linear-gradient-15" x1="601.31" y1="240.24" x2="630.39" y2="387.07" xlink:href="#linear-gradient-5"/><linearGradient id="linear-gradient-16" x1="405.07" y1="365.79" x2="405.07" y2="297.99" xlink:href="#linear-gradient-4"/><linearGradient id="linear-gradient-17" x1="473.47" y1="199.59" x2="387.72" y2="325.8" xlink:href="#linear-gradient-4"/><linearGradient id="linear-gradient-18" x1="404.94" y1="274.25" x2="404.94" y2="368.32" xlink:href="#linear-gradient-4"/><linearGradient id="linear-gradient-19" x1="551.91" y1="322.79" x2="551.91" y2="373.03" xlink:href="#linear-gradient-4"/><linearGradient id="linear-gradient-20" x1="537.03" y1="322.79" x2="537.03" y2="373.03" xlink:href="#linear-gradient-4"/><linearGradient id="linear-gradient-21" x1="551.91" y1="324.3" x2="551.91" y2="374.54" xlink:href="#linear-gradient-4"/><linearGradient id="linear-gradient-22" x1="537.03" y1="324.3" x2="537.03" y2="374.54" xlink:href="#linear-gradient-4"/><linearGradient id="linear-gradient-23" x1="400" y1="296.02" x2="400" y2="408.73" xlink:href="#linear-gradient-5"/></defs><title>logo2</title><polygon class="cls-1" points="265.81 281.87 206.93 340.75 320.84 337.28 265.81 281.87"/><polygon class="cls-2" points="523.38 217.22 457.45 286.78 588.8 282.68 523.38 217.22"/><polygon class="cls-3" points="544.41 286.1 486.31 343.82 599.07 340.75 544.41 286.1"/><polygon class="cls-4" points="534.12 194.37 414.87 231 354.63 293.39 354.76 293.43 382.06 321.7 413.94 321.34 534.12 194.37"/><polygon class="cls-5" points="599.96 233.6 598.19 234.29 585.97 239.08 585.97 245.72 599.22 259.6 599.96 260.38 599.96 233.6"/><polygon class="cls-6" points="618.77 239.08 599.97 233.6 599.97 260.38 618.77 280.08 618.77 239.08"/><polygon class="cls-7" points="537.05 200.44 527.44 210.68 617.53 304.46 617.53 324.27 655.31 324.27 537.05 200.44"/><polygon class="cls-8" points="206.46 295.44 207.85 295.99 217.35 299.7 217.35 304.86 207.05 315.65 206.46 316.27 206.46 295.44"/><polygon class="cls-9" points="191.85 299.7 206.46 295.44 206.46 316.27 191.85 331.57 191.85 299.7"/><polygon class="cls-10" points="255.05 270.19 262.56 278.07 192.81 350.52 195.89 390.9 103.44 406.62 191.17 385.77 184.37 362.68 166.32 362.68 255.05 270.19"/><rect class="cls-11" x="250.94" y="329.06" width="11.6" height="11.6"/><rect class="cls-12" x="266.5" y="329.06" width="11.6" height="11.6"/><rect class="cls-13" x="250.94" y="344.5" width="11.6" height="11.59"/><rect class="cls-14" x="266.5" y="344.5" width="11.6" height="11.59"/><polygon class="cls-15" points="590.83 312.18 590.83 317.8 615.09 342.07 615.09 337.59 590.83 312.18"/><polygon class="cls-16" points="555.14 274.75 547.82 282.29 614.18 351.23 611.1 390.9 696.57 409.05 615.49 386.28 621.65 365.87 642.11 365.87 555.14 274.75"/><polygon class="cls-17" points="257.64 264.95 350.33 293.43 409 354.19 464.31 296.9 552.5 269.81 469.23 355.89 469.23 363.71 343.94 363.71 343.94 355.89 257.64 264.95"/><polygon class="cls-18" points="359.81 293.34 416.86 234.26 521.79 202.02 412.33 317.67 383.6 317.99 359.81 293.34"/><polygon class="cls-19" points="347.63 360.01 347.63 354.41 270.01 272.62 348.33 296.68 409 359.5 466.3 300.16 539.86 277.56 465.54 354.39 465.54 360.01 347.63 360.01"/><rect class="cls-20" x="546.4" y="330.81" width="11.02" height="11.03"/><rect class="cls-21" x="531.52" y="330.81" width="11.03" height="11.03"/><rect class="cls-22" x="546.4" y="345.57" width="11.02" height="11.03"/><rect class="cls-23" x="531.52" y="345.57" width="11.03" height="11.03"/><path class="cls-24" d="M103.47,417.56h-.07c53.53-10.16,107.37-18,161.64-22.95,45-4.11,90.17-5.41,135.36-6.48,77.58-1.82,156.21,3,232.51,17.54,21.38,4.07,42.61,8.94,63.69,14.37-66.44-15.37-133.41-20.36-201.52-23.25-31.54-1.33-63.07-1.44-94.63-1.45-45.1.81-90.12,2.45-135.11,5.53C211.06,404.9,157.2,408.81,103.47,417.56Z"/><text class="cls-25" transform="translate(178.06 519.76)"><tspan class="cls-26">P</tspan><tspan class="cls-27" x="62.25" y="0">a</tspan><tspan x="120.56" y="0">yBlock</tspan></text></svg>