<svg id="Layer_1" data-name="Layer 1" xmlns="http://www.w3.org/2000/svg" viewBox="0 0 800 800"><defs><style>.cls-1{fill:#54b9d2;}.cls-2{fill:#1a98b6;}.cls-3{fill:#0c6787;}.cls-4{fill:#8dcbcd;}.cls-5{fill:#59869f;}.cls-6{fill:#4fcbc6;}.cls-7{fill:#2f7178;}.cls-8{fill:#008477;}.cls-9{fill:#59a3a8;}.cls-10{fill:#94cfdf;}.cls-11{fill:#429ab7;}.cls-12{fill:#007694;}.cls-13{fill:#b3e5fc;}.cls-14{font-size:75.62px;fill:#2574a5;font-family:MyriadPro-Regular, Myriad Pro;}.cls-15{letter-spacing:-0.03em;}.cls-16{letter-spacing:-0.01em;}</style></defs><title>432 [Converted]</title><path class="cls-1" d="M394.22,199.66l59.85-29.93v59.85l-59.85,29.93Z"/><path class="cls-2" d="M394.22,319.36l59.85-29.93v59.85L394.22,379.2Z"/><path class="cls-3" d="M394.22,439.05l59.85-29.92V469L394.22,498.9Z"/><path class="cls-4" d="M393.49,259.87,333.64,230V289.8l59.85,29.92Z"/><path class="cls-5" d="M394.22,379.2v59.85l-59.85-29.92V349.28Z"/><path class="cls-6" d="M334.37,289.43v59.85l-59.84-29.93V259.51Z"/><path class="cls-7" d="M334.37,409.13l59.85,29.92V498.9L334.37,469Z"/><path class="cls-8" d="M274.53,379.2l59.84,29.93V469l-59.84-29.93Z"/><path class="cls-9" d="M394.22,379.2v59.85l-59.85-29.92V349.28Z"/><path class="cls-10" d="M454.07,229.58l59.85-29.92v59.85l-59.85,29.92Z"/><path class="cls-11" d="M454.07,349.28l59.85-29.92V379.2l-59.85,29.93Z"/><path class="cls-12" d="M454.07,409.13l59.85-29.93v59.85L454.07,469Z"/><path class="cls-13" d="M334.37,169.73l59.85-29.92,59.85,29.92-59.85,29.93Z"/><text class="cls-14" transform="translate(264.73 561.64)"><tspan class="cls-15">P</tspan><tspan class="cls-16" x="38.27" y="0">a</tspan><tspan x="74.11" y="0">yBlock</tspan></text></svg>